<svg width="16" height="17" viewBox="0 0 16 17" fill="none" xmlns="http://www.w3.org/2000/svg">
    <path d="M2 12.5V8.5C2 6.9087 2.63214 5.38258 3.75736 4.25736C4.88258 3.13214 6.4087 2.5 8 2.5C9.5913 2.5 11.1174 3.13214 12.2426 4.25736C13.3679 5.38258 14 6.9087 14 8.5V12.5"
          stroke="#B6C1CE" stroke-width="2" stroke-linecap="round" stroke-linejoin="round"/>
    <path d="M14 13.1667C14 13.5203 13.8595 13.8595 13.6095 14.1095C13.3594 14.3596 13.0203 14.5 12.6667 14.5H12C11.6464 14.5 11.3072 14.3596 11.0572 14.1095C10.8071 13.8595 10.6667 13.5203 10.6667 13.1667V11.1667C10.6667 10.8131 10.8071 10.4739 11.0572 10.2239C11.3072 9.97385 11.6464 9.83337 12 9.83337H14V13.1667ZM2 13.1667C2 13.5203 2.14048 13.8595 2.39052 14.1095C2.64057 14.3596 2.97971 14.5 3.33333 14.5H4C4.35362 14.5 4.69276 14.3596 4.94281 14.1095C5.19286 13.8595 5.33333 13.5203 5.33333 13.1667V11.1667C5.33333 10.8131 5.19286 10.4739 4.94281 10.2239C4.69276 9.97385 4.35362 9.83337 4 9.83337H2V13.1667Z"
          stroke="#B6C1CE" stroke-width="2" stroke-linecap="round" stroke-linejoin="round"/>
</svg>
