<svg width="16" height="17" viewBox="0 0 16 17" fill="none" xmlns="http://www.w3.org/2000/svg">
    <path d="M6 12.5V3.83333L14 2.5V11.1667" stroke="#B6C1CE" stroke-width="2" stroke-linecap="round"
          stroke-linejoin="round"/>
    <path d="M4 14.5C5.10457 14.5 6 13.6046 6 12.5C6 11.3954 5.10457 10.5 4 10.5C2.89543 10.5 2 11.3954 2 12.5C2 13.6046 2.89543 14.5 4 14.5Z"
          stroke="#B6C1CE" stroke-width="2" stroke-linecap="round" stroke-linejoin="round"/>
    <path d="M12 13.1666C13.1046 13.1666 14 12.2712 14 11.1666C14 10.0621 13.1046 9.16663 12 9.16663C10.8954 9.16663 10 10.0621 10 11.1666C10 12.2712 10.8954 13.1666 12 13.1666Z"
          stroke="#B6C1CE" stroke-width="2" stroke-linecap="round" stroke-linejoin="round"/>
</svg>
